<svg id="HP-Desktop" xmlns="http://www.w3.org/2000/svg" width="125.194" height="40.95" viewBox="0 0 125.194 40.95">
  <g id="Desktop-HD_HP_SignIn_dropdown" transform="translate(0 0)">
    <g id="Header_Desktop" data-name="Header/Desktop" transform="translate(0)">
      <g id="Icon_Logo" data-name="Icon/Logo">
        <path id="Fill-1" d="M44.519,20.609c0-2.978-.788-5.724-3.847-5.724-3.244,0-4.217,2.745-4.217,5.724v1.3h7.74a.293.293,0,0,0,.324-.326Zm-8.064,6.422c-.046,3.3.417,7.028,4.774,7.028a7.343,7.343,0,0,0,7.415-6.422h.742c-.742,4.281-3.893,7.167-8.157,7.167-5.422,0-9.223-4.188-9.223-10.331,0-4.514,3.615-10.331,8.667-10.331,5.469,0,8.3,6.143,8.3,8.1a.369.369,0,0,1-.418.418h-12.1Z" transform="translate(-6.286 -2.777)" fill-rule="evenodd"/>
        <path id="Fill-3" d="M58.045,15.91H54.384v-.745h3.661c2.225,0,3.059,0,3.893-1.024v4.747h.092c1.205-2.234,3.522-4.747,6.906-4.747,4.959,0,6.349,2.513,6.349,5.259V33.5h3.662v.745H67.731V33.5h3.661V18.283c0-2.559-1.251-3.4-2.734-3.4-3.893,0-5.886,3.908-6.72,5.491V33.5H65.46v.745H54.384V33.5h3.661Z" transform="translate(-10.68 -2.777)" fill-rule="evenodd"/>
        <path id="Fill-5" d="M97.329,20.609c0-2.978-.787-5.724-3.847-5.724-3.244,0-4.217,2.745-4.217,5.724v1.3H97a.293.293,0,0,0,.324-.326Zm-8.064,6.422c-.047,3.3.417,7.028,4.773,7.028a7.343,7.343,0,0,0,7.416-6.422h.742c-.742,4.281-3.893,7.167-8.157,7.167-5.423,0-9.222-4.188-9.222-10.331,0-4.514,3.615-10.331,8.666-10.331,5.469,0,8.3,6.143,8.3,8.1a.369.369,0,0,1-.417.418h-12.1Z" transform="translate(-16.657 -2.777)" fill-rule="evenodd"/>
        <path id="Fill-7" d="M141.77,14.568h-4.033v-.745c4.821.093,6.582-1.955,7.369-6.515h.557v6.515h6.4v.745h-6.4V30.2c0,1.908.788,2.513,2.271,2.513,2.318,0,3.337-2.141,3.615-2.932l.694.14a5.074,5.074,0,0,1-5.1,3.536c-3.244,0-5.376-1.07-5.376-4.142Z" transform="translate(-27.05 -1.435)" fill-rule="evenodd"/>
        <path id="Fill-9" d="M128.763,15.91H127.2v-.745h1.567c1.483,0,2.965-.093,3.893-1.024V33.5h3.707v.745H125.054V33.5h3.709Z" transform="translate(-24.559 -2.777)" fill-rule="evenodd"/>
        <path id="Fill-11" d="M115.478,13.534c-2.917,8.42-5.39,17.059-7.522,20.787-3.222,5.653-5.223,6.717-8.025,6.618a2.646,2.646,0,0,1-2.582-2.514,2.033,2.033,0,0,1,2.073-2.015,1.782,1.782,0,0,1,1.94,1.78c-.042,1.211-.886,1.181-.9,1.682-.01.292.252.426.652.441.755.026,2.51-.539,3.832-3.96,1.712-4.453,3.971-14.583,6.508-22.264l.226-.665A23.935,23.935,0,0,1,118.1,2.84C120.348.83,122.248-.065,124.2,0a2.893,2.893,0,0,1,2.987,2.749,2.1,2.1,0,0,1-2.208,2.177,2.2,2.2,0,0,1-2.162-2.26c.039-1.127.757-1.31.771-1.685.01-.334-.345-.347-.612-.356-2.666-.094-5.348,6.249-5.995,8.232Z" transform="translate(-19.118 0)" fill-rule="evenodd"/>
        <path id="Fill-13" d="M109.939,16.16l0-.748h12.319l0,.748Z" transform="translate(-21.591 -3.027)" fill-rule="evenodd"/>
        <g id="Group-17" transform="translate(0 0.136)">
          <path id="Fill-15" d="M7.128,24.561a6.309,6.309,0,0,0,6.2,6.6c4.566,0,5.125-2.666,5.125-9.637,0-6.41-.7-9.638-4.8-9.638-3.867,0-6.523,3.836-6.523,7.252ZM3.215,1.946H0V1.182H3.215c1.491,0,2.982-.1,3.913-1.179v15.9h.093a7.134,7.134,0,0,1,6.43-4.772c5.591,0,9.272,5.8,9.272,10.386,0,5.474-3.774,10.386-9.6,10.386a6.871,6.871,0,0,1-6.1-3.977H7.128v3.415H0V30.6H3.215Z" transform="translate(0 -0.003)" fill-rule="evenodd"/>
        </g>
        <path id="Fill-18" d="M6.321,45.84a1.752,1.752,0,0,0-.946-.323.834.834,0,0,0-.89.807c0,1.13,2.009.59,2.009,2.073A1.18,1.18,0,0,1,5.27,49.558a1.958,1.958,0,0,1-1.082-.372V48.8a1.725,1.725,0,0,0,1.063.453.855.855,0,0,0,.89-.844c0-1.2-2.009-.677-2.009-2.074a1.167,1.167,0,0,1,1.212-1.124,2,2,0,0,1,.977.267Z" transform="translate(-0.812 -8.879)" fill-rule="evenodd"/>
        <path id="Stroke-20" d="M6.321,45.84a1.752,1.752,0,0,0-.946-.323.834.834,0,0,0-.89.807c0,1.13,2.009.59,2.009,2.073A1.18,1.18,0,0,1,5.27,49.558a1.958,1.958,0,0,1-1.082-.372V48.8a1.725,1.725,0,0,0,1.063.453.855.855,0,0,0,.89-.844c0-1.2-2.009-.677-2.009-2.074a1.167,1.167,0,0,1,1.212-1.124,2,2,0,0,1,.977.267Z" transform="translate(-0.812 -8.879)" fill="none" stroke="#000" stroke-width="0.5" fill-rule="evenodd"/>
        <path id="Fill-22" d="M4.2,49.169a1.929,1.929,0,0,0,1.061.362,1.16,1.16,0,0,0,1.2-1.139c0-.777-.555-.986-1.093-1.188-.471-.177-.916-.344-.916-.885a.854.854,0,0,1,.912-.829,1.718,1.718,0,0,1,.924.307v-.31a1.966,1.966,0,0,0-.955-.258,1.15,1.15,0,0,0-1.19,1.1c0,.709.532.913,1.047,1.11.5.19.963.369.963.963a.88.88,0,0,1-.912.866A1.7,1.7,0,0,1,4.2,48.838Zm1.061.405A1.977,1.977,0,0,1,4.171,49.2l-.01-.006v-.439l.034.025a1.712,1.712,0,0,0,1.051.449.838.838,0,0,0,.869-.823c0-.565-.454-.739-.935-.923-.528-.2-1.074-.411-1.074-1.15a1.193,1.193,0,0,1,1.233-1.145,2.011,2.011,0,0,1,.987.27l.011.006v.41l-.032-.018a1.731,1.731,0,0,0-.935-.32.812.812,0,0,0-.869.786c0,.511.431.674.888.845.525.2,1.121.421,1.121,1.228a1.2,1.2,0,0,1-1.245,1.182Z" transform="translate(-0.806 -8.874)" fill-rule="evenodd"/>
        <path id="Stroke-24" d="M4.2,49.169a1.929,1.929,0,0,0,1.061.362,1.16,1.16,0,0,0,1.2-1.139c0-.777-.555-.986-1.093-1.188-.471-.177-.916-.344-.916-.885a.854.854,0,0,1,.912-.829,1.718,1.718,0,0,1,.924.307v-.31a1.966,1.966,0,0,0-.955-.258,1.15,1.15,0,0,0-1.19,1.1c0,.709.532.913,1.047,1.11.5.19.963.369.963.963a.88.88,0,0,1-.912.866A1.7,1.7,0,0,1,4.2,48.838Zm1.061.405A1.977,1.977,0,0,1,4.171,49.2l-.01-.006v-.439l.034.025a1.712,1.712,0,0,0,1.051.449.838.838,0,0,0,.869-.823c0-.565-.454-.739-.935-.923-.528-.2-1.074-.411-1.074-1.15a1.193,1.193,0,0,1,1.233-1.145,2.011,2.011,0,0,1,.987.27l.011.006v.41l-.032-.018a1.731,1.731,0,0,0-.935-.32.812.812,0,0,0-.869.786c0,.511.431.674.888.845.525.2,1.121.421,1.121,1.228A1.2,1.2,0,0,1,5.265,49.574Z" transform="translate(-0.806 -8.874)" fill="none" stroke="#000" stroke-width="0.5" fill-rule="evenodd"/>
        <path id="Fill-26" d="M11.99,45.778l-.9,1.993H12.9Zm2.04,3.731h-.34l-.668-1.465H10.964L10.3,49.508h-.34L11.9,45.244h.179Z" transform="translate(-1.955 -8.885)" fill-rule="evenodd"/>
        <path id="Stroke-28" d="M11.99,45.778l-.9,1.993H12.9Zm2.04,3.731h-.34l-.668-1.465H10.964L10.3,49.508h-.34L11.9,45.244h.179Z" transform="translate(-1.955 -8.885)" fill="none" stroke="#000" stroke-width="0.5" fill-rule="evenodd"/>
        <path id="Fill-30" d="M11.113,47.744h1.745l-.875-1.919Zm1.811.043H11.046l.936-2.066Zm.772,1.695h.293L12.061,45.26h-.152L9.982,49.482h.293l.668-1.465h2.086l.006.013Zm.36.043h-.387l-.006-.012L13,48.06H10.97L10.3,49.525H9.915l.014-.03,1.953-4.277h.207l.006.012Z" transform="translate(-1.947 -8.88)" fill-rule="evenodd"/>
        <path id="Stroke-32" d="M11.113,47.744h1.745l-.875-1.919Zm1.811.043H11.046l.936-2.066Zm.772,1.695h.293L12.061,45.26h-.152L9.982,49.482h.293l.668-1.465h2.086l.006.013Zm.36.043h-.387l-.006-.012L13,48.06H10.97L10.3,49.525H9.915l.014-.03,1.953-4.277h.207l.006.012Z" transform="translate(-1.947 -8.88)" fill="none" stroke="#000" stroke-width="0.5" fill-rule="evenodd"/>
        <path id="Fill-34" d="M22,49.516h-.272l-3.2-3.7v3.7H18.2V45.283h.278l3.2,3.7v-3.7H22Z" transform="translate(-3.573 -8.893)" fill-rule="evenodd"/>
        <path id="Stroke-36" d="M22,49.516h-.272l-3.2-3.7v3.7H18.2V45.283h.278l3.2,3.7v-3.7H22Z" transform="translate(-3.573 -8.893)" fill="none" stroke="#000" stroke-width="0.5" fill-rule="evenodd"/>
        <path id="Fill-38" d="M21.73,49.489h.241V45.3h-.285v3.736L18.459,45.3h-.247v4.191H18.5V45.754Zm.284.043h-.3l-.006-.007-3.165-3.656v3.664h-.371V45.256h.31l.006.007,3.159,3.656V45.256h.37Z" transform="translate(-3.568 -8.888)" fill-rule="evenodd"/>
        <path id="Stroke-40" d="M21.73,49.489h.241V45.3h-.285v3.736L18.459,45.3h-.247v4.191H18.5V45.754Zm.284.043h-.3l-.006-.007-3.165-3.656v3.664h-.371V45.256h.31l.006.007,3.159,3.656V45.256h.37Z" transform="translate(-3.568 -8.888)" fill="none" stroke="#000" stroke-width="0.5" fill-rule="evenodd"/>
        <path id="Fill-42" d="M33.513,45.555H31.671v1.608h1.663v.273H31.671v2.079h-.328V45.283h2.17Z" transform="translate(-6.155 -8.893)" fill-rule="evenodd"/>
        <path id="Stroke-44" d="M33.513,45.555H31.671v1.608h1.663v.273H31.671v2.079h-.328V45.283h2.17Z" transform="translate(-6.155 -8.893)" fill="none" stroke="#000" stroke-width="0.5" fill-rule="evenodd"/>
        <path id="Fill-46" d="M31.359,49.489h.285V47.41h1.663v-.23H31.644V45.529h1.842V45.3H31.359Zm.328.043h-.371V45.256h2.213v.316H31.687v1.565H33.35v.316H31.687Z" transform="translate(-6.15 -8.888)" fill-rule="evenodd"/>
        <path id="Stroke-48" d="M31.359,49.489h.285V47.41h1.663v-.23H31.644V45.529h1.842V45.3H31.359Zm.328.043h-.371V45.256h2.213v.316H31.687v1.565H33.35v.316H31.687Z" transform="translate(-6.15 -8.888)" fill="none" stroke="#000" stroke-width="0.5" fill-rule="evenodd"/>
        <path id="Fill-50" d="M37.587,47.213h.7c.742,0,1.1-.323,1.1-.832,0-.478-.34-.826-1.113-.826h-.686Zm.754-1.931c1.032,0,1.4.528,1.4,1.092a1.054,1.054,0,0,1-.8,1.031,1.925,1.925,0,0,1,.563.646l.952,1.465h-.383l-.736-1.161c-.507-.8-.668-.869-1.175-.869h-.569v2.03h-.328V45.282Z" transform="translate(-7.317 -8.893)" fill-rule="evenodd"/>
        <path id="Stroke-52" d="M37.587,47.213h.7c.742,0,1.1-.323,1.1-.832,0-.478-.34-.826-1.113-.826h-.686Zm.754-1.931c1.032,0,1.4.528,1.4,1.092a1.054,1.054,0,0,1-.8,1.031,1.925,1.925,0,0,1,.563.646l.952,1.465h-.383l-.736-1.161c-.507-.8-.668-.869-1.175-.869h-.569v2.03h-.328V45.282Z" transform="translate(-7.317 -8.893)" fill="none" stroke="#000" stroke-width="0.5" fill-rule="evenodd"/>
        <path id="Fill-54" d="M37.6,47.186h.677c.7,0,1.079-.288,1.079-.81s-.4-.8-1.091-.8H37.6Zm.677.043h-.72v-1.7h.708c.721,0,1.134.309,1.134.847,0,.319-.146.853-1.122.853Zm1.792,2.26H40.4l-.93-1.432a1.9,1.9,0,0,0-.555-.638l-.042-.023.045-.017a1.029,1.029,0,0,0,.79-1.01c0-.322-.134-1.071-1.376-1.071H37.275v4.191h.285v-2.03h.59c.524,0,.684.076,1.193.879Zm.411.043h-.435l-.006-.01-.736-1.161c-.5-.785-.652-.859-1.157-.859H37.6v2.03h-.371V45.256h1.1c1.28,0,1.419.779,1.419,1.114a1.068,1.068,0,0,1-.775,1.035,2.143,2.143,0,0,1,.531.63Z" transform="translate(-7.312 -8.888)" fill-rule="evenodd"/>
        <path id="Stroke-56" d="M37.6,47.186h.677c.7,0,1.079-.288,1.079-.81s-.4-.8-1.091-.8H37.6Zm.677.043h-.72v-1.7h.708c.721,0,1.134.309,1.134.847C39.4,46.695,39.256,47.229,38.28,47.229Zm1.792,2.26H40.4l-.93-1.432a1.9,1.9,0,0,0-.555-.638l-.042-.023.045-.017a1.029,1.029,0,0,0,.79-1.01c0-.322-.134-1.071-1.376-1.071H37.275v4.191h.285v-2.03h.59c.524,0,.684.076,1.193.879Zm.411.043h-.435l-.006-.01-.736-1.161c-.5-.785-.652-.859-1.157-.859H37.6v2.03h-.371V45.256h1.1c1.28,0,1.419.779,1.419,1.114a1.068,1.068,0,0,1-.775,1.035,2.143,2.143,0,0,1,.531.63Z" transform="translate(-7.312 -8.888)" fill="none" stroke="#000" stroke-width="0.5" fill-rule="evenodd"/>
        <path id="Fill-58" d="M45.663,45.778l-.9,1.993h1.811Zm2.04,3.731h-.34L46.7,48.044H44.636l-.668,1.465h-.34l1.948-4.265h.179Z" transform="translate(-8.568 -8.885)" fill-rule="evenodd"/>
        <path id="Stroke-60" d="M45.663,45.778l-.9,1.993h1.811Zm2.04,3.731h-.34L46.7,48.044H44.636l-.668,1.465h-.34l1.948-4.265h.179Z" transform="translate(-8.568 -8.885)" fill="none" stroke="#000" stroke-width="0.5" fill-rule="evenodd"/>
        <path id="Fill-62" d="M44.785,47.744H46.53l-.875-1.919Zm1.812.043H44.719l.936-2.066Zm.772,1.695h.293L45.734,45.26h-.152l-1.928,4.222h.293l.668-1.465H46.7l.006.013Zm.36.043h-.387l-.006-.012-.662-1.453H44.642l-.668,1.465h-.387l.014-.03,1.953-4.277h.207l.006.012Z" transform="translate(-8.56 -8.88)" fill-rule="evenodd"/>
        <path id="Stroke-64" d="M44.785,47.744H46.53l-.875-1.919Zm1.812.043H44.719l.936-2.066Zm.772,1.695h.293L45.734,45.26h-.152l-1.928,4.222h.293l.668-1.465H46.7l.006.013Zm.36.043h-.387l-.006-.012-.662-1.453H44.642l-.668,1.465h-.387l.014-.03,1.953-4.277h.207l.006.012Z" transform="translate(-8.56 -8.88)" fill="none" stroke="#000" stroke-width="0.5" fill-rule="evenodd"/>
        <path id="Fill-66" d="M55.67,49.516H55.4l-3.2-3.7v3.7h-.328V45.283h.278l3.2,3.7v-3.7h.328Z" transform="translate(-10.186 -8.893)" fill-rule="evenodd"/>
        <path id="Stroke-68" d="M55.67,49.516H55.4l-3.2-3.7v3.7h-.328V45.283h.278l3.2,3.7v-3.7h.328Z" transform="translate(-10.186 -8.893)" fill="none" stroke="#000" stroke-width="0.5" fill-rule="evenodd"/>
        <path id="Fill-70" d="M55.4,49.489h.241V45.3h-.285v3.736L52.131,45.3h-.247v4.191h.285V45.754Zm.284.043h-.3l-.006-.007-3.165-3.656v3.664h-.371V45.256h.309l.006.007,3.159,3.656V45.256h.371Z" transform="translate(-10.181 -8.888)" fill-rule="evenodd"/>
        <path id="Stroke-72" d="M55.4,49.489h.241V45.3h-.285v3.736L52.131,45.3h-.247v4.191h.285V45.754Zm.284.043h-.3l-.006-.007-3.165-3.656v3.664h-.371V45.256h.309l.006.007,3.159,3.656V45.256h.371Z" transform="translate(-10.181 -8.888)" fill="none" stroke="#000" stroke-width="0.5" fill-rule="evenodd"/>
        <path id="Fill-74" d="M63.812,45.927a3.115,3.115,0,0,0-1.5-.41,1.869,1.869,0,0,0,.043,3.737,3.108,3.108,0,0,0,1.5-.435v.341a3.211,3.211,0,0,1-1.5.4,2.15,2.15,0,0,1-2.244-2.167,2.178,2.178,0,0,1,2.213-2.179,3.568,3.568,0,0,1,1.484.354Z" transform="translate(-11.806 -8.879)" fill-rule="evenodd"/>
        <path id="Stroke-76" d="M63.812,45.927a3.115,3.115,0,0,0-1.5-.41,1.869,1.869,0,0,0,.043,3.737,3.108,3.108,0,0,0,1.5-.435v.341a3.211,3.211,0,0,1-1.5.4,2.15,2.15,0,0,1-2.244-2.167,2.178,2.178,0,0,1,2.213-2.179,3.568,3.568,0,0,1,1.484.354Z" transform="translate(-11.806 -8.879)" fill="none" stroke="#000" stroke-width="0.5" fill-rule="evenodd"/>
        <path id="Fill-78" d="M62.323,45.229a2.152,2.152,0,1,0,.031,4.3,3.179,3.179,0,0,0,1.475-.389V48.85a3.088,3.088,0,0,1-1.481.42,1.814,1.814,0,0,1-1.907-1.884,1.839,1.839,0,0,1,1.864-1.9,3.118,3.118,0,0,1,1.481.4v-.311a3.53,3.53,0,0,0-1.462-.346m.031,4.345a2.179,2.179,0,0,1-2.266-2.188,2.153,2.153,0,0,1,.68-1.592,2.3,2.3,0,0,1,1.555-.609,3.584,3.584,0,0,1,1.493.356l.012.006v.41l-.031-.017a3.1,3.1,0,0,0-1.492-.407,1.8,1.8,0,0,0-1.821,1.853,1.773,1.773,0,0,0,1.864,1.841A3.082,3.082,0,0,0,63.84,48.8l.031-.017v.39l-.011.006a3.227,3.227,0,0,1-1.506.4" transform="translate(-11.801 -8.874)" fill-rule="evenodd"/>
        <path id="Stroke-80" d="M62.323,45.229a2.152,2.152,0,1,0,.031,4.3,3.179,3.179,0,0,0,1.475-.389V48.85a3.088,3.088,0,0,1-1.481.42,1.814,1.814,0,0,1-1.907-1.884,1.839,1.839,0,0,1,1.864-1.9,3.118,3.118,0,0,1,1.481.4v-.311A3.53,3.53,0,0,0,62.323,45.229Zm.031,4.345a2.179,2.179,0,0,1-2.266-2.188,2.153,2.153,0,0,1,.68-1.592,2.3,2.3,0,0,1,1.555-.609,3.584,3.584,0,0,1,1.493.356l.012.006v.41l-.031-.017a3.1,3.1,0,0,0-1.492-.407,1.8,1.8,0,0,0-1.821,1.853,1.773,1.773,0,0,0,1.864,1.841A3.082,3.082,0,0,0,63.84,48.8l.031-.017v.39l-.011.006A3.227,3.227,0,0,1,62.354,49.575Z" transform="translate(-11.801 -8.874)" fill="none" stroke="#000" stroke-width="0.5" fill-rule="evenodd"/>
        <path id="Fill-82" d="M68.085,49.516h.328V45.282h-.328Z" transform="translate(-13.371 -8.893)" fill-rule="evenodd"/>
        <path id="Stroke-84" d="M68.085,49.516h.328V45.282h-.328Z" transform="translate(-13.371 -8.893)" fill="none" stroke="#000" stroke-width="0.5" fill-rule="evenodd"/>
        <path id="Fill-85" d="M68.1,49.489h.285V45.3H68.1Zm-.043.043h.37V45.256h-.37Z" transform="translate(-13.366 -8.888)" fill-rule="evenodd"/>
        <path id="Stroke-86" d="M68.1,49.489h.285V45.3H68.1Zm-.043.043h.37V45.256h-.37Z" transform="translate(-13.366 -8.888)" fill="none" stroke="#000" stroke-width="0.5" fill-rule="evenodd"/>
        <path id="Fill-87" d="M74.166,45.84a1.751,1.751,0,0,0-.946-.323.834.834,0,0,0-.89.807c0,1.13,2.009.59,2.009,2.073a1.181,1.181,0,0,1-1.224,1.161,1.959,1.959,0,0,1-1.082-.372V48.8a1.725,1.725,0,0,0,1.063.453.855.855,0,0,0,.89-.844c0-1.2-2.009-.677-2.009-2.074a1.167,1.167,0,0,1,1.212-1.124,2,2,0,0,1,.977.267Z" transform="translate(-14.136 -8.879)" fill-rule="evenodd"/>
        <path id="Stroke-88" d="M74.166,45.84a1.751,1.751,0,0,0-.946-.323.834.834,0,0,0-.89.807c0,1.13,2.009.59,2.009,2.073a1.181,1.181,0,0,1-1.224,1.161,1.959,1.959,0,0,1-1.082-.372V48.8a1.725,1.725,0,0,0,1.063.453.855.855,0,0,0,.89-.844c0-1.2-2.009-.677-2.009-2.074a1.167,1.167,0,0,1,1.212-1.124,2,2,0,0,1,.977.267Z" transform="translate(-14.136 -8.879)" fill="none" stroke="#000" stroke-width="0.5" fill-rule="evenodd"/>
        <path id="Fill-89" d="M72.049,49.169a1.929,1.929,0,0,0,1.061.362,1.16,1.16,0,0,0,1.2-1.139c0-.777-.556-.986-1.093-1.188-.471-.177-.917-.344-.917-.885a.854.854,0,0,1,.912-.829,1.717,1.717,0,0,1,.924.307v-.31a1.966,1.966,0,0,0-.955-.258,1.15,1.15,0,0,0-1.19,1.1c0,.709.532.913,1.047,1.11.495.19.963.369.963.963a.88.88,0,0,1-.912.866,1.7,1.7,0,0,1-1.042-.433Zm1.061.405a1.977,1.977,0,0,1-1.094-.376l-.01-.006v-.439l.034.025a1.712,1.712,0,0,0,1.051.449.838.838,0,0,0,.869-.823c0-.565-.454-.739-.935-.923-.528-.2-1.074-.411-1.074-1.15a1.193,1.193,0,0,1,1.233-1.145,2.012,2.012,0,0,1,.987.27l.011.006v.41l-.032-.018a1.731,1.731,0,0,0-.935-.32.812.812,0,0,0-.869.786c0,.511.432.674.888.845.525.2,1.121.421,1.121,1.228a1.2,1.2,0,0,1-1.246,1.182Z" transform="translate(-14.13 -8.874)" fill-rule="evenodd"/>
        <path id="Stroke-90" d="M72.049,49.169a1.929,1.929,0,0,0,1.061.362,1.16,1.16,0,0,0,1.2-1.139c0-.777-.556-.986-1.093-1.188-.471-.177-.917-.344-.917-.885a.854.854,0,0,1,.912-.829,1.717,1.717,0,0,1,.924.307v-.31a1.966,1.966,0,0,0-.955-.258,1.15,1.15,0,0,0-1.19,1.1c0,.709.532.913,1.047,1.11.495.19.963.369.963.963a.88.88,0,0,1-.912.866,1.7,1.7,0,0,1-1.042-.433Zm1.061.405a1.977,1.977,0,0,1-1.094-.376l-.01-.006v-.439l.034.025a1.712,1.712,0,0,0,1.051.449.838.838,0,0,0,.869-.823c0-.565-.454-.739-.935-.923-.528-.2-1.074-.411-1.074-1.15a1.193,1.193,0,0,1,1.233-1.145,2.012,2.012,0,0,1,.987.27l.011.006v.41l-.032-.018a1.731,1.731,0,0,0-.935-.32.812.812,0,0,0-.869.786c0,.511.432.674.888.845.525.2,1.121.421,1.121,1.228A1.2,1.2,0,0,1,73.11,49.574Z" transform="translate(-14.13 -8.874)" fill="none" stroke="#000" stroke-width="0.5" fill-rule="evenodd"/>
        <path id="Fill-91" d="M81.844,45.927a3.115,3.115,0,0,0-1.5-.41,1.869,1.869,0,0,0,.043,3.737,3.11,3.11,0,0,0,1.5-.435v.341a3.212,3.212,0,0,1-1.5.4,2.15,2.15,0,0,1-2.244-2.167,2.178,2.178,0,0,1,2.214-2.179,3.567,3.567,0,0,1,1.484.354Z" transform="translate(-15.347 -8.879)" fill-rule="evenodd"/>
        <path id="Stroke-92" d="M81.844,45.927a3.115,3.115,0,0,0-1.5-.41,1.869,1.869,0,0,0,.043,3.737,3.11,3.11,0,0,0,1.5-.435v.341a3.212,3.212,0,0,1-1.5.4,2.15,2.15,0,0,1-2.244-2.167,2.178,2.178,0,0,1,2.214-2.179,3.567,3.567,0,0,1,1.484.354Z" transform="translate(-15.347 -8.879)" fill="none" stroke="#000" stroke-width="0.5" fill-rule="evenodd"/>
        <path id="Fill-93" d="M80.355,45.229a2.152,2.152,0,1,0,.031,4.3,3.18,3.18,0,0,0,1.475-.389V48.85a3.087,3.087,0,0,1-1.481.42,1.814,1.814,0,0,1-1.907-1.884,1.839,1.839,0,0,1,1.864-1.9,3.119,3.119,0,0,1,1.481.4v-.311a3.53,3.53,0,0,0-1.462-.346m.031,4.345a2.179,2.179,0,0,1-2.266-2.188,2.153,2.153,0,0,1,.68-1.592,2.3,2.3,0,0,1,1.555-.609,3.583,3.583,0,0,1,1.493.356l.013.006v.41l-.031-.017a3.1,3.1,0,0,0-1.492-.407,1.8,1.8,0,0,0-1.821,1.853,1.773,1.773,0,0,0,1.865,1.841,3.082,3.082,0,0,0,1.492-.432l.031-.017v.39l-.011.006a3.228,3.228,0,0,1-1.506.4" transform="translate(-15.342 -8.874)" fill-rule="evenodd"/>
        <path id="Stroke-94" d="M80.355,45.229a2.152,2.152,0,1,0,.031,4.3,3.18,3.18,0,0,0,1.475-.389V48.85a3.087,3.087,0,0,1-1.481.42,1.814,1.814,0,0,1-1.907-1.884,1.839,1.839,0,0,1,1.864-1.9,3.119,3.119,0,0,1,1.481.4v-.311A3.53,3.53,0,0,0,80.355,45.229Zm.031,4.345a2.179,2.179,0,0,1-2.266-2.188,2.153,2.153,0,0,1,.68-1.592,2.3,2.3,0,0,1,1.555-.609,3.583,3.583,0,0,1,1.493.356l.013.006v.41l-.031-.017a3.1,3.1,0,0,0-1.492-.407,1.8,1.8,0,0,0-1.821,1.853,1.773,1.773,0,0,0,1.865,1.841,3.082,3.082,0,0,0,1.492-.432l.031-.017v.39l-.011.006A3.228,3.228,0,0,1,80.386,49.575Z" transform="translate(-15.342 -8.874)" fill="none" stroke="#000" stroke-width="0.5" fill-rule="evenodd"/>
        <path id="Fill-95" d="M88.147,45.517a1.869,1.869,0,1,0,1.873,1.869,1.853,1.853,0,0,0-1.873-1.869m-.012,4.041a2.174,2.174,0,1,1,2.238-2.172,2.177,2.177,0,0,1-2.238,2.172" transform="translate(-16.872 -8.879)" fill-rule="evenodd"/>
        <path id="Stroke-96" d="M88.147,45.517a1.869,1.869,0,1,0,1.873,1.869A1.853,1.853,0,0,0,88.147,45.517Zm-.012,4.041a2.174,2.174,0,1,1,2.238-2.172A2.177,2.177,0,0,1,88.135,49.558Z" transform="translate(-16.872 -8.879)" fill="none" stroke="#000" stroke-width="0.5" fill-rule="evenodd"/>
        <path id="Fill-97" d="M88.142,45.533a1.847,1.847,0,1,0,1.852,1.847,1.836,1.836,0,0,0-1.852-1.847m0,3.737a1.89,1.89,0,1,1,1.895-1.89,1.878,1.878,0,0,1-1.895,1.89m-.012-4.041a2.152,2.152,0,1,0,2.216,2.151,2.155,2.155,0,0,0-2.216-2.151m0,4.345a2.2,2.2,0,1,1,2.259-2.194,2.2,2.2,0,0,1-2.259,2.194" transform="translate(-16.867 -8.874)" fill-rule="evenodd"/>
        <path id="Stroke-98" d="M88.142,45.533a1.847,1.847,0,1,0,1.852,1.847A1.836,1.836,0,0,0,88.142,45.533Zm0,3.737a1.89,1.89,0,1,1,1.895-1.89A1.878,1.878,0,0,1,88.142,49.27Zm-.012-4.041a2.152,2.152,0,1,0,2.216,2.151A2.155,2.155,0,0,0,88.13,45.229Zm0,4.345a2.2,2.2,0,1,1,2.259-2.194A2.2,2.2,0,0,1,88.13,49.575Z" transform="translate(-16.867 -8.874)" fill="none" stroke="#000" stroke-width="0.5" fill-rule="evenodd"/>
      </g>
    </g>
  </g>
</svg>
