<svg xmlns="http://www.w3.org/2000/svg" width="35.75" height="25.137" viewBox="0 0 35.75 25.137">
  <g id="mail_2_" data-name="mail (2)" transform="translate(0 -76)">
    <g id="Group_124" data-name="Group 124" transform="translate(0 76)">
      <path id="Path_31" data-name="Path 31" d="M32.608,76H3.142A3.147,3.147,0,0,0,0,79.142V97.995a3.147,3.147,0,0,0,3.142,3.142H32.608a3.146,3.146,0,0,0,3.142-3.142V79.142A3.145,3.145,0,0,0,32.608,76Zm-.44,2.095L20.1,90.1a3.142,3.142,0,0,1-4.446,0L3.582,78.095ZM2.095,97.568v-18l9.052,9Zm1.489,1.474,9.048-8.991,1.54,1.532a5.237,5.237,0,0,0,7.4,0l1.542-1.534,9.048,8.991Zm30.072-1.474L24.6,88.574l9.052-9Z" transform="translate(0 -76)"/>
    </g>
  </g>
</svg>
