<svg id="facebook_12_" data-name="facebook (12)" xmlns="http://www.w3.org/2000/svg" width="45.914" height="45.914" viewBox="0 0 45.914 45.914">
  <path id="Path_32" data-name="Path 32" d="M22.957,0A22.957,22.957,0,1,0,45.914,22.957,22.983,22.983,0,0,0,22.957,0Zm0,43.288a20.33,20.33,0,1,1,20.33-20.33A20.354,20.354,0,0,1,22.957,43.288Z" transform="translate(0)"/>
  <path id="Path_33" data-name="Path 33" d="M121.588,71.952h-2.528a3.756,3.756,0,0,0-3.752,3.752v2.843h-2.355a1.066,1.066,0,1,0,0,2.133h2.355v9.873a1.066,1.066,0,1,0,2.133,0V80.68h3.643a1.066,1.066,0,0,0,0-2.133h-3.643V75.7a1.621,1.621,0,0,1,1.619-1.619h2.527a1.066,1.066,0,0,0,0-2.133Z" transform="translate(-94.314 -59.175)"/>
</svg>
