<svg id="Group_126" data-name="Group 126" xmlns="http://www.w3.org/2000/svg" width="45.914" height="45.914" viewBox="0 0 45.914 45.914">
  <path id="instagram_8_" data-name="instagram (8)" d="M9.181,18.009H9c-1.412,0-2.716-.032-3.984-.11a5.326,5.326,0,0,1-3.07-1.162A4.928,4.928,0,0,1,.292,14.064a11.846,11.846,0,0,1-.272-2.829C.012,10.578,0,9.8,0,9.007s.011-1.574.02-2.232A11.847,11.847,0,0,1,.292,3.946,4.928,4.928,0,0,1,1.948,1.273,5.326,5.326,0,0,1,5.018.111C6.286.034,7.591,0,9.005,0s2.716.033,3.984.11a5.326,5.326,0,0,1,3.07,1.162,4.927,4.927,0,0,1,1.656,2.673,11.846,11.846,0,0,1,.272,2.829c.009.657.019,1.436.02,2.229v0c0,.792-.011,1.571-.02,2.229a11.84,11.84,0,0,1-.272,2.829,4.927,4.927,0,0,1-1.656,2.673A5.326,5.326,0,0,1,12.99,17.9c-1.215.074-2.462.11-3.808.11ZM9,16.6c1.389,0,2.664-.032,3.9-.107a3.875,3.875,0,0,0,2.266-.848,3.552,3.552,0,0,0,1.182-1.931,10.777,10.777,0,0,0,.228-2.5c.009-.653.018-1.427.02-2.211s-.011-1.558-.02-2.211a10.779,10.779,0,0,0-.228-2.5A3.552,3.552,0,0,0,15.17,2.363,3.876,3.876,0,0,0,12.9,1.515c-1.239-.075-2.514-.11-3.9-.107s-2.663.032-3.9.107a3.876,3.876,0,0,0-2.266.848A3.552,3.552,0,0,0,1.655,4.294a10.778,10.778,0,0,0-.228,2.5c-.009.654-.018,1.427-.02,2.213s.011,1.556.02,2.209a10.777,10.777,0,0,0,.228,2.5,3.552,3.552,0,0,0,1.182,1.931,3.876,3.876,0,0,0,2.266.848C6.342,16.57,7.617,16.605,9,16.6Zm-.034-3.2a4.4,4.4,0,1,1,4.4-4.4A4.4,4.4,0,0,1,8.968,13.4Zm0-7.386a2.99,2.99,0,1,0,2.99,2.99A2.993,2.993,0,0,0,8.968,6.016ZM13.857,3.2a1.055,1.055,0,1,0,1.055,1.055A1.055,1.055,0,0,0,13.857,3.2Zm0,0" transform="translate(13.253 14.357)"/>
  <path id="Path_35" data-name="Path 35" d="M22.957,0A22.957,22.957,0,1,0,45.914,22.957,22.983,22.983,0,0,0,22.957,0Zm0,43.288a20.33,20.33,0,1,1,20.33-20.33A20.354,20.354,0,0,1,22.957,43.288Z" transform="translate(0)"/>
</svg>
