<svg xmlns="http://www.w3.org/2000/svg" width="45.914" height="45.914" viewBox="0 0 45.914 45.914">
  <g id="Group_144" data-name="Group 144" transform="translate(-982 -1608)">
    <path id="Path_34" data-name="Path 34" d="M22.957,0A22.957,22.957,0,1,0,45.914,22.957,22.957,22.957,0,0,0,22.957,0Zm0,43.288a20.33,20.33,0,1,1,20.33-20.33,20.33,20.33,0,0,1-20.33,20.33Z" transform="translate(982 1608)"/>
    <g id="linkedin" transform="translate(997.57 1622.57)">
      <path id="Path_109" data-name="Path 109" d="M18.033,17.685h0V12.266c0-2.651-.571-4.692-3.669-4.692a3.217,3.217,0,0,0-2.9,1.592h-.043V7.821H8.489v9.863h3.059V12.8c0-1.286.244-2.529,1.836-2.529,1.569,0,1.592,1.467,1.592,2.612v4.8Z" transform="translate(-3.264 -2.912)"/>
      <path id="Path_110" data-name="Path 110" d="M.4,7.977H3.459V17.84H.4Z" transform="translate(-0.152 -3.067)"/>
      <path id="Path_111" data-name="Path 111" d="M1.774,0A1.782,1.782,0,1,0,3.548,1.774,1.775,1.775,0,0,0,1.774,0Z"/>
    </g>
  </g>
</svg>
