<svg id="menu_8_" data-name="menu (8)" xmlns="http://www.w3.org/2000/svg" width="33.704" height="23.563" viewBox="0 0 33.704 23.563">
  <g id="Menu_1_">
    <path id="Path_13" data-name="Path 13" d="M32.651,98.349H1.053a1.053,1.053,0,0,1,0-2.106h31.6a1.053,1.053,0,1,1,0,2.106Z" transform="translate(0 -96.243)"/>
    <path id="Path_14" data-name="Path 14" d="M1.053,180.455h31.6a1.053,1.053,0,1,1,0,2.106H1.053a1.053,1.053,0,0,1,0-2.106Z" transform="translate(0 -169.727)"/>
    <path id="Path_15" data-name="Path 15" d="M121.356,264.667h21.065a1.053,1.053,0,0,1,0,2.107H121.356a1.053,1.053,0,0,1,0-2.107Z" transform="translate(-120.303 -243.21)"/>
  </g>
</svg>
