<svg xmlns="http://www.w3.org/2000/svg" width="17.026" height="19.121" viewBox="0 0 17.026 19.121">
  <g id="paperclip" transform="translate(-28.042 0)">
    <g id="Group_402" data-name="Group 402" transform="translate(28.042 0)">
      <path id="Path_41" data-name="Path 41" d="M43.675,1.393a4.768,4.768,0,0,0-6.736,0L29.847,8.485a.56.56,0,1,0,.792.792l7.092-7.092a3.731,3.731,0,0,1,5.151,0,3.646,3.646,0,0,1,0,5.151l-9.9,10.015a2.3,2.3,0,0,1-3.17,0,2.243,2.243,0,0,1,0-3.169l9.507-9.619a.861.861,0,0,1,1.189,0,.842.842,0,0,1,0,1.189l-9.11,9.222a.625.625,0,0,0,0,.792.56.56,0,0,0,.792,0L41.3,6.543a1.963,1.963,0,0,0,0-2.774,2.009,2.009,0,0,0-2.773,0l-9.507,9.619a3.384,3.384,0,0,0,0,4.754,3.38,3.38,0,0,0,4.755,0l9.9-10.015A4.768,4.768,0,0,0,43.675,1.393Z" transform="translate(-28.042 0)" fill="#fff"/>
    </g>
  </g>
</svg>
