<svg xmlns="http://www.w3.org/2000/svg" width="298.429" height="56.89" viewBox="0 0 298.429 56.89">
  <g id="Group_2" data-name="Group 2" transform="translate(-1460.689 292.908)">
    <path id="Path_1" data-name="Path 1" d="M46.578,125.356h2.79v14.031h-2.79Zm32.112,0H93.183c6.216,0,8.952,3.29,8.952,7.016,0,3.316-2.285,7.015-8.952,7.015H78.69Zm2.791,12.486H92.008c5.246,0,7.194-2.442,7.194-5.47,0-3.5-2.658-5.471-7.194-5.471H81.481Zm-60.5-12.486H35.909c4.69,0,6.05,2.374,6.05,4.457,0,3.481-3.205,4.283-4.309,4.4l5.152,5.176H38.835l-4.859-5.037H23.768v5.037h-2.79Zm2.79,7.449h11.4c2.758,0,3.884-1.3,3.884-2.953s-1.094-2.952-3.884-2.952h-11.4ZM62,126.376a2.489,2.489,0,0,1,2.023-1.28c.94,0,1.353.448,2.126,1.422.792,1,10.143,12.873,10.143,12.873H72.741l-3.261-4.145H57.041l-3.262,4.145H51.755S61.58,126.917,62,126.376Zm1.261.932-5.231,6.553H68.442Zm144.39,12.43c-8.96,0-11.106-4.236-11.106-9.042v-5.341h2.791v5.771c0,4.132,2.228,7.152,8.315,7.152,5.871,0,8.332-2.83,8.332-7.152v-5.771h2.786V130.7C218.77,135.5,216.612,139.738,207.652,139.738Zm-40.924-7.372c0-4.328,3.411-7.372,12.165-7.372,8.24,0,12.165,2.748,12.165,7.372s-3.925,7.372-12.165,7.372C170.14,139.738,166.728,136.694,166.728,132.367Zm2.856,0c0,3.551,2.666,5.912,9.309,5.912,6.508,0,9.307-2.282,9.307-5.912,0-3.592-2.7-5.913-9.307-5.913S169.584,128.79,169.584,132.367Zm-55.037-7.011h14.493c6.215,0,8.953,3.29,8.953,7.016,0,3.316-2.285,7.015-8.953,7.015H114.548Zm2.79,12.486h10.528c5.246,0,7.194-2.442,7.194-5.47,0-3.5-2.658-5.471-7.194-5.471H117.338Zm108.417-12.486h14.493c6.215,0,8.952,3.29,8.952,7.016,0,3.316-2.286,7.015-8.952,7.015H225.755Zm2.79,12.486h10.527c5.247,0,7.2-2.442,7.2-5.47,0-3.5-2.658-5.471-7.2-5.471H228.545Zm-78.21-11.466a2.49,2.49,0,0,1,2.023-1.28c.94,0,1.354.448,2.126,1.422.792,1,10.142,12.873,10.142,12.873h-3.551l-3.261-4.145H145.376l-3.262,4.145H140.09S149.914,126.917,150.335,126.376Zm1.262.932-5.232,6.553h10.412Z" transform="translate(1509.917 -396.898)" fill="#1a1818"/>
    <g id="Group_3" data-name="Group 3" transform="translate(1460.689 -292.908)">
      <circle id="Ellipse_1" data-name="Ellipse 1" cx="28.445" cy="28.445" r="28.445" transform="translate(0 56.89) rotate(-90)" fill="#818386"/>
      <path id="Path_16" data-name="Path 16" d="M25.69,0A25.69,25.69,0,1,1,0,25.69,25.69,25.69,0,0,1,25.69,0Z" transform="translate(2.755 2.424)" fill="#002891"/>
      <path id="Path_2" data-name="Path 2" d="M201.487,52.53H174.714c-4.569,0-5.913,1.884-5.913,3.941,0,3.468,3.475,3.836,4.579,3.951l-5.161,6.14h3.556l5.01-6.073h10.208v6.073h14.494c6.668,0,8.954-3.7,8.954-7.016C210.441,55.82,207.7,52.53,201.487,52.53Zm-14.494,6.414h-11.4c-2.494,0-3.884-.783-3.884-2.434,0-1.522,1.21-2.435,3.884-2.435h11.4Zm13.319,6.073H189.784v-4.6h9.948V58.868h-9.948V54.075h10.528c4.537,0,7.2,1.972,7.2,5.472C207.508,62.575,205.559,65.017,200.312,65.017Z" transform="translate(-161.048 -31.526)" fill="#fff"/>
    </g>
  </g>
</svg>
