<?xml version="1.0" encoding="utf-8"?>
<!-- Generator: Adobe Illustrator 25.2.1, SVG Export Plug-In . SVG Version: 6.00 Build 0)  -->
<svg xmlns="http://www.w3.org/2000/svg" width="398.429" height="85" 
	 viewBox="0 0 455 2"  xml:space="preserve">
<style type="text/css">
	.st0{fill:#939598;}
	.st1{fill:#0033A1;}
	.st2{fill:#FFFFFF;}
</style>
<g style="transform: translate(-20px,-60px);">
	<path class="st0" d="M472.05,63.85c0,23.67-19.19,42.86-42.86,42.86c-23.67,0-42.86-19.19-42.86-42.86
		c0-23.67,19.19-42.86,42.86-42.86C452.86,20.98,472.05,40.17,472.05,63.85z"/>
	<path class="st1" d="M467.9,63.85c0,21.38-17.33,38.71-38.71,38.71c-21.38,0-38.71-17.33-38.71-38.71
		c0-21.38,17.33-38.71,38.71-38.71C450.57,25.14,467.9,42.46,467.9,63.85z"/>
	<path class="st2" d="M447.26,53.26h-40.34c-6.88,0-8.91,2.84-8.91,5.94c0,5.23,5.24,5.78,6.9,5.96l-7.78,9.25h5.36l7.55-9.15h15.38
		v9.15h21.84c10.05,0,13.49-5.58,13.49-10.57C460.76,58.22,456.63,53.26,447.26,53.26z M425.42,62.93h-17.18
		c-3.76,0-5.85-1.18-5.85-3.67c0-2.3,1.82-3.67,5.85-3.67h17.18V62.93z M445.49,72.08h-15.86v-6.94h14.99v-2.33h-14.99v-7.22h15.86
		c6.84,0,10.84,2.97,10.84,8.24C456.34,68.4,453.4,72.08,445.49,72.08z"/>
	<path d="M73.82,55.19c-9.83,0-15.54,4.33-15.54,9.7c0,5.57,6.21,9.79,15.54,9.79c6.61,0,9.14-1.79,10.26-2.83
		c-0.17,4.97-4.65,7.77-12.13,7.77v2.95c9.07-0.18,17.17-2.16,17.17-10.98v-6.57C89.12,60.08,84.07,55.19,73.82,55.19z M73.9,71.9
		c-7.65,0-10.63-3.98-10.63-7.06c0-2.99,3.17-6.92,10.23-6.92c5.44,0,10.62,2.93,10.62,7.1C84.12,68.16,80.69,71.9,73.9,71.9z
		 M96.74,75.34h5.07V49.06h-5.07V75.34z M27.87,55.27v2.91h1.48C40.69,58.18,49,62.95,49,72.25H21.18v3.09H54.4
		C54.4,60.57,45.54,55.27,27.87,55.27z M116.75,55.27v2.91h1.48c11.34,0,19.66,4.76,19.66,14.07h-27.83v3.09h33.22
		C143.28,60.57,134.42,55.27,116.75,55.27z M240.68,55.27c-15.03,0-24.96,7.39-27.79,9.61v-9.57h-5.08v10.09
		c0,8.83-7.24,14.25-20.29,14.25c-12.61,0-20.37-5.53-20.37-13.78V55.32h-5.09V66.3c0,9.03,7.1,16.35,25.46,16.35
		c14.53,0,19.63-4.37,22.27-7.32h52.03c0.29-2.06,0.45-3.76,0.45-5.12C262.27,60.26,255.07,55.27,240.68,55.27z M256.91,72.29
		h-45.25c0.23-0.5,0.56-1.36,0.71-1.99c2.85-3.76,13.91-12.21,27.86-12.21c11.38,0,16.95,5.58,16.95,11.42
		C257.18,70.4,257.08,71.33,256.91,72.29z M243.43,48.39h-5.09v3.74h5.09V48.39z M334.41,65.71c0,3.85-1.97,6.54-8.1,6.54
		c0,0-41.31,0-41.69,0c-4.66,0-7.92-1.74-7.92-6.33V49.06h-5.07v17.89c0,4.88,2.61,8.39,10.9,8.39h45.67
		c8.89,0,11.27-3.51,11.27-8.68V55.32h-5.07V65.71z M334.31,82.08h5.09v-3.75h-5.09V82.08z M323.65,82.08h5.08v-3.75h-5.08V82.08z
		 M359.71,53.13v16.84c0,4.75-3.74,7.46-12.01,7.46v2.95c6.82-0.28,17.09-1.05,17.09-10.98V53.13H359.71z"/>
</g>
</svg>
