<svg id="Component_1_4" data-name="Component 1 – 4" xmlns="http://www.w3.org/2000/svg" width="409" height="56" viewBox="0 0 409 56">
  <g id="Rectangle_20" data-name="Rectangle 20" fill="#fff" stroke="#bbb" stroke-width="0.5" opacity="0">
    <rect width="409" height="56" rx="28" stroke="none"/>
    <rect x="0.25" y="0.25" width="408.5" height="55.5" rx="27.75" fill="none"/>
  </g>
  <g id="search_4_" data-name="search (4)" transform="translate(368.805 13)">
    <g id="Group_5" data-name="Group 5">
      <g id="Group_4" data-name="Group 4">
        <path id="Path_4" data-name="Path 4" d="M12.381,0A12.381,12.381,0,1,0,24.762,12.381,12.4,12.4,0,0,0,12.381,0Zm0,22.476a10.1,10.1,0,1,1,10.1-10.1A10.107,10.107,0,0,1,12.381,22.476Z" fill="#818386"/>
      </g>
    </g>
    <g id="Group_7" data-name="Group 7" transform="translate(19.276 19.276)">
      <g id="Group_6" data-name="Group 6">
        <path id="Path_5" data-name="Path 5" d="M359.549,357.933,353,351.381A1.143,1.143,0,1,0,351.381,353l6.552,6.552a1.143,1.143,0,0,0,1.616-1.616Z" transform="translate(-351.046 -351.046)" fill="#818386"/>
      </g>
    </g>
  </g>
</svg>
