<svg id="send_2_" data-name="send (2)" xmlns="http://www.w3.org/2000/svg" width="23.44" height="20.373" viewBox="0 0 23.44 20.373">
  <path id="Path_36" data-name="Path 36" d="M23.425,34.324a.687.687,0,0,0-.916-.786L.443,41.961a.687.687,0,0,0,0,1.282l6.2,2.394v7.541a.687.687,0,0,0,1.3.309L10.5,48.4l6.257,4.643a.687.687,0,0,0,1.066-.351c5.842-19.153,5.589-18.32,5.6-18.368Zm-5.447,2.413L7.228,44.393,2.6,42.607ZM8.012,45.521l9.37-6.673c-8.063,8.506-7.641,8.058-7.677,8.105-.052.07.091-.2-1.693,3.337ZM16.8,51.36l-5.507-4.087,9.958-10.5Z" transform="translate(-0.001 -33.492)" fill="#fff"/>
</svg>
