<svg id="Group_125" data-name="Group 125" xmlns="http://www.w3.org/2000/svg" width="45.914" height="45.914" viewBox="0 0 45.914 45.914">
  <path id="twitter_7_" data-name="twitter (7)" d="M20.562,2.248c-1.293.06-1.265.055-1.411.067L19.917.127s-2.391.88-3,1.037A4.8,4.8,0,0,0,11.269.71,3.913,3.913,0,0,0,9.388,4.734,10.437,10.437,0,0,1,2.627.927L2.059.245l-.424.778a4.7,4.7,0,0,0-.5,3.167,4.55,4.55,0,0,0,.441,1.236l-.487-.189-.058.813A4.338,4.338,0,0,0,1.767,8.63a4.586,4.586,0,0,0,.573.707L2.088,9.3l.307.932a4.529,4.529,0,0,0,2.328,2.7c-1.086.461-1.963.755-3.4,1.229L0,14.59l1.218.666a12.788,12.788,0,0,0,3.728,1.357c3.605.565,7.664.1,10.4-2.356,2.3-2.073,3.057-5.021,2.9-8.09A1.917,1.917,0,0,1,18.6,4.919c.51-.681,1.958-2.667,1.962-2.671ZM17.637,4.2a3.122,3.122,0,0,0-.6,2.031c.158,3.1-.684,5.5-2.5,7.134-2.125,1.914-5.553,2.665-9.4,2.061a9.326,9.326,0,0,1-2.015-.6,31.95,31.95,0,0,0,3.65-1.5l2.1-1L6.548,12.18a3.286,3.286,0,0,1-2.609-1.486,4.167,4.167,0,0,0,.884-.147l2.216-.617L4.8,9.382A3.328,3.328,0,0,1,2.772,7.968,3.408,3.408,0,0,1,2.332,7a5.578,5.578,0,0,0,.906.145l2.068.2L3.668,6.067A3.449,3.449,0,0,1,2.361,2.433a11.987,11.987,0,0,0,8.447,3.636,7.134,7.134,0,0,0-.123-1.022A2.766,2.766,0,0,1,11.9,1.735a3.6,3.6,0,0,1,4.245.352,1.078,1.078,0,0,0,.989.265,8.327,8.327,0,0,0,.815-.248l-.52,1.484h.663l-.456.61Zm0,0" transform="translate(12.629 14.571)" stroke="#000" stroke-width="0.2"/>
  <path id="Path_34" data-name="Path 34" d="M22.957,0A22.957,22.957,0,1,0,45.914,22.957,22.983,22.983,0,0,0,22.957,0Zm0,43.288a20.33,20.33,0,1,1,20.33-20.33A20.354,20.354,0,0,1,22.957,43.288Z" transform="translate(0 0)"/>
</svg>
