<svg xmlns="http://www.w3.org/2000/svg" width="20.529" height="13.085" viewBox="0 0 20.529 13.085">
  <g id="view_1_" data-name="view (1)" transform="translate(0 -92.835)">
    <g id="Group_345" data-name="Group 345" transform="translate(0 92.835)">
      <g id="Group_344" data-name="Group 344" transform="translate(0 0)">
        <path id="Path_42" data-name="Path 42" d="M20.4,98.978c-.183-.251-4.553-6.143-10.134-6.143S.313,98.727.13,98.978a.677.677,0,0,0,0,.8c.183.251,4.553,6.143,10.134,6.143s9.951-5.892,10.134-6.143A.677.677,0,0,0,20.4,98.978Zm-10.134,5.588c-4.111,0-7.672-3.911-8.726-5.189,1.053-1.28,4.606-5.188,8.726-5.188s7.671,3.91,8.726,5.189C17.938,100.657,14.384,104.566,10.265,104.566Z" transform="translate(0 -92.835)" fill="#fff"/>
      </g>
    </g>
    <g id="Group_347" data-name="Group 347" transform="translate(6.204 95.317)">
      <g id="Group_346" data-name="Group 346" transform="translate(0 0)">
        <path id="Path_43" data-name="Path 43" d="M158.783,154.725a4.061,4.061,0,1,0,4.061,4.061A4.065,4.065,0,0,0,158.783,154.725Zm0,6.768a2.707,2.707,0,1,1,2.707-2.707A2.71,2.71,0,0,1,158.783,161.493Z" transform="translate(-154.722 -154.725)" fill="#fff"/>
      </g>
    </g>
  </g>
</svg>
